<?xml version="1.0" encoding="utf-8"?>
<!-- Generator: Adobe Illustrator 21.1.0, SVG Export Plug-In . SVG Version: 6.00 Build 0)  -->
<svg version="1.1" id="レイヤー_1" xmlns="http://www.w3.org/2000/svg" xmlns:xlink="http://www.w3.org/1999/xlink" x="0px"
	 y="0px" viewBox="0 0 198 198" style="enable-background:new 0 0 198 198;" xml:space="preserve">
<style type="text/css">
	.st0{fill:#22CBFF;}
	.st1{fill:#FFFFFF;}
	.st2{font-family:'ArialMT';}
	.st3{font-size:31.7597px;}
</style>
<g id="here">
	<path class="st0" d="M196.9,79.5c-0.8-14.5-6.2-28.4-14.8-40c-5.7-7.7-12.7-14.3-20.4-19.7c0,0-0.1-0.1-0.1-0.1
		c-1.3-0.9-2.6-1.7-3.9-2.6c-0.4-0.3-0.8-0.5-1.3-0.8c-1-0.6-2-1.2-3-1.8c-0.8-0.4-1.5-0.9-2.3-1.3c-0.8-0.4-1.5-0.8-2.3-1.2
		c-1.1-0.5-2.1-1.1-3.2-1.6c-0.6-0.3-1.2-0.5-1.7-0.8c-1.3-0.6-2.5-1.1-3.8-1.6c-0.5-0.2-1-0.4-1.5-0.6c-1.4-0.5-2.7-1-4.1-1.4
		c-0.6-0.2-1.2-0.4-1.8-0.6c-1.3-0.4-2.5-0.8-3.8-1.1c-1-0.3-2-0.5-3-0.7c-0.9-0.2-1.7-0.4-2.6-0.6c-1.8-0.4-3.7-0.7-5.5-1.1
		c0,0-0.1,0-0.1,0c-6.2-1-12.5-1.6-18.7-1.6c-20.2,0-40.5,5.3-57.7,15.9c-5.7,3.5-10.9,7.6-15.6,12.2c-0.5,0.5-0.9,0.9-1.3,1.4
		c-1,1-2,2-2.9,3.1c-0.7,0.8-1.3,1.5-1.9,2.3c-0.7,0.8-1.4,1.6-2,2.5c-0.6,0.8-1.2,1.7-1.8,2.5c-0.6,0.9-1.3,1.7-1.8,2.6
		c-0.5,0.7-0.9,1.5-1.4,2.2c-0.7,1.1-1.3,2.2-1.9,3.3c-0.3,0.5-0.5,1-0.8,1.5c-0.7,1.4-1.5,2.8-2.1,4.3c-0.1,0.2-0.1,0.4-0.2,0.5
		C0.9,69.5-1,85.8,3.4,102.2c11.2,41.1,54.7,64.1,95.1,64.3c13.1,10.5,26.4,20.7,39.7,31c1.9-13.4,3.9-26.8,5.7-40.2
		c16.6-7.6,32.1-19.1,41.6-34.9C193.4,109.4,197.7,94.8,196.9,79.5z"/>
	<text transform="matrix(1 0 0 1 56.1504 97.9434)" class="st1 st2 st3">HERE</text>
</g>
</svg>
