<?xml version="1.0" encoding="utf-8"?>
<!-- Generator: Adobe Illustrator 21.1.0, SVG Export Plug-In . SVG Version: 6.00 Build 0)  -->
<svg version="1.1" id="レイヤー_1" xmlns="http://www.w3.org/2000/svg" xmlns:xlink="http://www.w3.org/1999/xlink" x="0px"
	 y="0px" viewBox="0 0 44 44" style="enable-background:new 0 0 44 44;" xml:space="preserve">
<style type="text/css">
	.st0{opacity:0.14;fill:#FFFFFF;}
</style>
<path class="st0" d="M42.4,39.4L32.9,30c2.3-2.9,3.8-6.9,3.8-11.1C36.7,9,28.7,1,18.9,1S1,9,1,18.8s8,17.9,17.9,17.9
	c4.2,0,8-1.5,11.1-3.8l9.4,9.5c0.4,0.4,1,0.6,1.5,0.6s1-0.2,1.5-0.6C43.2,41.5,43.2,40.3,42.4,39.4z M5.2,18.9
	c0-7.6,6.1-13.6,13.6-13.6s13.6,6.1,13.6,13.6c0,3.8-1.5,7.1-4,9.7l0,0l0,0c-2.5,2.5-5.9,4-9.7,4C11.3,32.5,5.2,26.4,5.2,18.9z"/>
</svg>
