<?xml version="1.0" encoding="utf-8"?>
<!-- Generator: Adobe Illustrator 21.1.0, SVG Export Plug-In . SVG Version: 6.00 Build 0)  -->
<svg version="1.1" id="レイヤー_1" xmlns="http://www.w3.org/2000/svg" xmlns:xlink="http://www.w3.org/1999/xlink" x="0px"
	 y="0px" viewBox="0 0 180 180" style="enable-background:new 0 0 180 180;" xml:space="preserve">
<style type="text/css">
	.st0{opacity:0.14;}
	.st1{fill:#FFFFFF;}
</style>
<g class="st0">
	<path class="st1" d="M53.2,130c-11.3,0-20,8.7-20,20s8.7,20,20,20s20-8.7,20-20S64.6,130,53.2,130z M53.2,156.7
		c-4,0-6.7-2.7-6.7-6.7s2.7-6.7,6.7-6.7s6.7,2.7,6.7,6.7S57.2,156.7,53.2,156.7z"/>
	<path class="st1" d="M133.1,130c-11.3,0-20,8.7-20,20s8.7,20,20,20c11.3,0,20-8.7,20-20S144.4,130,133.1,130z M133.1,156.7
		c-4,0-6.7-2.7-6.7-6.7s2.7-6.7,6.7-6.7c4,0,6.7,2.7,6.7,6.7S137.1,156.7,133.1,156.7z"/>
	<path class="st1" d="M58.6,123.3h70.6c0,0,0,0,0.7,0c9.3,0,18-6.7,19.3-16l10.6-56c0.7-2,0-4-1.3-5.3c-1.3-2-3.3-2.7-5.3-2.7H43.3
		l-2-16c-1.3-10-9.3-17.3-20-17.3H6.7c-4,0-6.7,2.7-6.7,6.7s2.7,6.7,6.7,6.7h14.6c3.3,0,6,2.7,6.7,6l10,76.7
		C39.9,116,47.9,123.3,58.6,123.3z M145.1,56.7l-9.3,48c-0.7,3.3-3.3,5.3-6.7,5.3H57.9c-3.3,0-6-2.7-6.7-6l-6-47.3L145.1,56.7z"/>
</g>
</svg>
