<?xml version="1.0" encoding="utf-8"?>
<!-- Generator: Adobe Illustrator 21.1.0, SVG Export Plug-In . SVG Version: 6.00 Build 0)  -->
<svg version="1.1" id="レイヤー_1" xmlns="http://www.w3.org/2000/svg" xmlns:xlink="http://www.w3.org/1999/xlink" x="0px"
	 y="0px" viewBox="0 0 44 44" style="enable-background:new 0 0 44 44;" xml:space="preserve">
<style type="text/css">
	.st0{fill:#FFFFFF;}
</style>
<g>
	<path class="st0" d="M29,17.2c0,3.9-7,8.8-7,8.8s-7-4.9-7-8.8c0-0.4,0-0.8,0-1.3c-0.1-2.2,1.8-3.9,3.9-3.9c1.2,0,2.3,0.8,3.1,1.8
		c0.7-0.9,1.8-1.8,3.1-1.8c2.2,0,4.1,1.8,3.9,3.9C29,16.4,29,16.9,29,17.2z M27.2,15.9c0.1-1.2-1-2.2-2.2-2.2
		c-2.3,0-2.2,1.8-2.2,1.8c0,0.5-0.4,0.9-0.9,0.9s-0.9-0.4-0.9-0.9c0,0,0.1-1.8-2.2-1.8c-1.2,0-2.3,1-2.2,2.2c0,0.5,0,0.9,0,1.3
		c0,0,0,0,0,0c0.1,0-0.3,2.6,5.2,6.5c0,0,0,0,0,0c0,0,0,0,0,0c5.5-4,5.2-6.6,5.2-6.5c0,0,0,0,0,0C27.3,16.9,27.2,16.4,27.2,15.9z"/>
	<g>
		<path class="st0" d="M15.7,39h-0.8v-8h0.8V39z"/>
		<path class="st0" d="M17.8,32.6c-0.3,0-0.5-0.2-0.5-0.6c0-0.3,0.2-0.6,0.5-0.6c0.3,0,0.5,0.2,0.5,0.6
			C18.3,32.3,18.1,32.6,17.8,32.6z M18.2,39h-0.8v-5.4h0.8V39z"/>
		<path class="st0" d="M24.1,39h-1l-1.9-2.7l-0.5,0.6V39h-0.8v-8h0.8v5.1h0c0.1-0.2,0.3-0.4,0.5-0.6l1.6-1.9h1l-2,2.2L24.1,39z"/>
		<path class="st0" d="M28.7,38.7c-0.3,0.1-0.9,0.3-1.7,0.3c-1.6,0-2.5-1.1-2.5-2.7c0-1.7,1-2.9,2.4-2.9c1.7,0,2.1,1.5,2.1,2.5
			c0,0.2,0,0.3,0,0.5h-3.7c0,1.5,0.9,2.1,1.8,2.1c0.7,0,1.1-0.1,1.4-0.3L28.7,38.7z M28.1,35.7c0-0.7-0.3-1.7-1.4-1.7
			c-1,0-1.4,1-1.5,1.7H28.1z"/>
	</g>
</g>
</svg>
