<?xml version="1.0" encoding="utf-8"?>
<!-- Generator: Adobe Illustrator 21.1.0, SVG Export Plug-In . SVG Version: 6.00 Build 0)  -->
<svg version="1.1" id="レイヤー_1" xmlns="http://www.w3.org/2000/svg" xmlns:xlink="http://www.w3.org/1999/xlink" x="0px"
	 y="0px" viewBox="0 0 44 44" style="enable-background:new 0 0 44 44;" xml:space="preserve">
<style type="text/css">
	.st0{fill:#FFFFFF;}
</style>
<g>
	<g>
		<path class="st0" d="M10.8,34.4c-0.2-0.1-0.6-0.3-1.1-0.3c-0.6,0-0.9,0.4-0.9,0.8c0,0.5,0.3,0.7,1,1c0.9,0.4,1.4,0.8,1.4,1.6
			c0,1-0.7,1.6-1.9,1.6c-0.5,0-1.1-0.2-1.4-0.4l0.2-0.6c0.3,0.2,0.8,0.4,1.2,0.4c0.7,0,1.1-0.4,1.1-0.9c0-0.5-0.3-0.8-1-1.1
			C8.5,36.1,8,35.6,8,34.9c0-0.8,0.7-1.5,1.8-1.5c0.5,0,1,0.2,1.2,0.3L10.8,34.4z"/>
		<path class="st0" d="M16.4,38.7c-0.3,0.1-0.9,0.3-1.7,0.3c-1.6,0-2.5-1.1-2.5-2.7c0-1.7,1-2.9,2.4-2.9c1.7,0,2.1,1.5,2.1,2.5
			c0,0.2,0,0.3,0,0.5h-3.7c0,1.5,0.9,2.1,1.8,2.1c0.7,0,1.1-0.1,1.4-0.3L16.4,38.7z M15.9,35.7c0-0.7-0.3-1.7-1.4-1.7
			c-1,0-1.4,1-1.5,1.7H15.9z"/>
		<path class="st0" d="M21.5,37.7c0,0.5,0,0.9,0.1,1.3h-0.8l-0.1-0.7h0c-0.3,0.4-0.8,0.8-1.6,0.8c-1,0-1.6-0.8-1.6-1.5
			c0-1.3,1.1-2,3.2-2c0-0.5,0-1.5-1.2-1.5c-0.5,0-1,0.1-1.3,0.4l-0.2-0.6c0.4-0.3,1-0.5,1.7-0.5c1.5,0,1.9,1.1,1.9,2.2V37.7z
			 M20.7,36.1c-1,0-2.3,0.2-2.3,1.3c0,0.7,0.4,1,0.9,1c0.8,0,1.4-0.6,1.4-1.3V36.1z"/>
		<path class="st0" d="M25.6,34.2c-0.1,0-0.2,0-0.3,0c-0.9,0-1.4,0.9-1.4,1.8v3h-0.8v-3.8c0-0.6,0-1.1,0-1.6h0.7l0,1h0
			c0.2-0.7,0.8-1.2,1.5-1.2c0.1,0,0.2,0,0.2,0V34.2z"/>
		<path class="st0" d="M30.2,38.8c-0.2,0.1-0.8,0.3-1.5,0.3c-1.6,0-2.6-1.1-2.6-2.8c0-1.7,1.1-2.9,2.8-2.9c0.6,0,1.1,0.2,1.3,0.3
			L30,34.4c-0.2-0.1-0.6-0.3-1.1-0.3c-1.3,0-1.9,1-1.9,2.2c0,1.3,0.8,2.1,1.9,2.1c0.5,0,0.9-0.2,1.2-0.3L30.2,38.8z"/>
		<path class="st0" d="M35.7,39h-0.8v-3.2c0-0.9-0.3-1.7-1.3-1.7c-0.6,0-1.4,0.5-1.4,1.5V39h-0.8v-8h0.8v3.4h0c0.4-0.6,1-1,1.7-1
			s1.8,0.4,1.8,2.3V39z"/>
	</g>
	<path class="st0" d="M23.4,21.9c-0.9,0.6-2.1,1-3.3,1c-3.2,0-5.7-2.5-5.7-5.5s2.6-5.5,5.7-5.5s5.7,2.5,5.7,5.5
		c0,1.5-0.6,2.9-1.7,3.9l4.1,3.9c0.2,0.2,0.2,0.5,0,0.6c-0.2,0.2-0.5,0.2-0.7,0L23.4,21.9L23.4,21.9z M20.1,22.3
		c2.8,0,5.1-2.2,5.1-4.8s-2.3-4.8-5.1-4.8S15,14.8,15,17.5S17.3,22.3,20.1,22.3L20.1,22.3z"/>
</g>
</svg>
