<?xml version="1.0" encoding="utf-8"?>
<!-- Generator: Adobe Illustrator 21.1.0, SVG Export Plug-In . SVG Version: 6.00 Build 0)  -->
<svg version="1.1" id="レイヤー_1" xmlns="http://www.w3.org/2000/svg" xmlns:xlink="http://www.w3.org/1999/xlink" x="0px"
	 y="0px" viewBox="0 0 44 44" style="enable-background:new 0 0 44 44;" xml:space="preserve">
<style type="text/css">
	.st0{fill:#FFFFFF;}
	.st1{font-family:'KozGoPr6N-Regular-83pv-RKSJ-H';}
	.st2{font-size:10px;}
</style>
<g>
	<g>
		<path class="st0" d="M19.3,24c-1.1,0-2,0.9-2,2s0.9,2,2,2s2-0.9,2-2S20.5,24,19.3,24z M19.3,26.7c-0.4,0-0.7-0.3-0.7-0.7
			s0.3-0.7,0.7-0.7S20,25.6,20,26S19.7,26.7,19.3,26.7z"/>
		<path class="st0" d="M27.3,24c-1.1,0-2,0.9-2,2s0.9,2,2,2s2-0.9,2-2S28.4,24,27.3,24z M27.3,26.7c-0.4,0-0.7-0.3-0.7-0.7
			s0.3-0.7,0.7-0.7S28,25.6,28,26S27.7,26.7,27.3,26.7z"/>
		<path class="st0" d="M19.9,23.3h7.1c0,0,0,0,0.1,0c0.9,0,1.8-0.7,1.9-1.6l1.1-5.6c0.1-0.2,0-0.4-0.1-0.5c-0.1-0.2-0.3-0.3-0.5-0.3
			h-11l-0.2-1.6c-0.1-1-0.9-1.7-2-1.7h-1.5c-0.4,0-0.7,0.3-0.7,0.7c0,0.4,0.3,0.7,0.7,0.7h1.5c0.3,0,0.6,0.3,0.7,0.6l1,7.7
			C18,22.6,18.8,23.3,19.9,23.3z M28.5,16.7l-0.9,4.8c-0.1,0.3-0.3,0.5-0.7,0.5h-7.1c-0.3,0-0.6-0.3-0.7-0.6l-0.6-4.7H28.5z"/>
	</g>
	<text transform="matrix(1 0 0 1 10.3804 38.9756)" class="st0 st1 st2">shop</text>
</g>
</svg>
